<svg t="1690040790742" class="icon" viewBox="0 0 1024 1024" version="1.1" xmlns="http://www.w3.org/2000/svg" p-id="2306" width="200" height="200"><path d="M518.72 290.56a92.16 92.16 0 0 0-16 182.88v84.8a16 16 0 0 0 32 0v-84.8a92.16 92.16 0 0 0-16-182.88z m0 152.48a60.32 60.32 0 1 1 60.16-60.32 60.32 60.32 0 0 1-60.16 60.32z" fill="#3FA9F5" p-id="2307"></path><path d="M758.88 286.4a89.92 89.92 0 0 1-42.88-23.04 120.96 120.96 0 0 1-20.8-39.36 16 16 0 0 0-10.24-10.88L523.84 157.28a9.28 9.28 0 0 0-3.68 0h-3.84a9.28 9.28 0 0 0-3.68 0L352 212.8a16 16 0 0 0-10.24 10.88A117.6 117.6 0 0 1 320 263.36a89.6 89.6 0 0 1-42.88 23.04 16 16 0 0 0-12.8 16c0 6.24-2.56 152.32 49.28 243.04 68.48 119.68 198.72 163.04 200 163.36h8.32c1.28 0 131.52-43.68 200-163.36 51.84-90.72 49.44-236.8 49.28-243.04a16 16 0 0 0-12.32-16z m-64 242.4c-56.16 98.24-158.56 140.32-176 146.88-20.16-7.52-120.96-49.76-176-146.88-39.52-68.8-44.48-178.72-45.12-214.56a113.12 113.12 0 0 0 48-29.92A144 144 0 0 0 369.44 240l148.8-51.36 148.8 51.36a144 144 0 0 0 24.8 43.84 112 112 0 0 0 48 29.92c-0.64 36.32-5.76 146.08-45.28 215.04z" fill="#3FA9F5" p-id="2308"></path><path d="M928 44.32H96a80 80 0 0 0-80 80V736a80 80 0 0 0 80 80h406.08v137.76H281.92a16 16 0 0 0 0 32h460.16a16 16 0 0 0 0-32h-208v-136.96H928a80 80 0 0 0 80-80V124.8a80 80 0 0 0-80-80.48zM976 736a48 48 0 0 1-48 48H96a48 48 0 0 1-48-48V124.8a48 48 0 0 1 48-48h832a48 48 0 0 1 48 48z" fill="#3FA9F5" p-id="2309"></path></svg>